PathFileType	4	(X/Y/Z)	pose_F01_0-84.trc
DataRate	CameraRate	NumFrames	NumMarkers	Units	OrigDataRate	OrigDataStartFrame	OrigNumFrames
30	30	8	21	m	30	24	84
Frame#	Time	CHip			RHip			RKnee			RAnkle			RBigToe			RSmallToe			RHeel			LHip			LKnee			LAnkle			LBigToe			LSmallToe			LHeel			Neck			Nose			RShoulder			RElbow			RWrist			LShoulder			LElbow			LWrist			
		X1	Y1	Z1	X2	Y2	Z2	X3	Y3	Z3	X4	Y4	Z4	X5	Y5	Z5	X6	Y6	Z6	X7	Y7	Z7	X8	Y8	Z8	X9	Y9	Z9	X10	Y10	Z10	X11	Y11	Z11	X12	Y12	Z12	X13	Y13	Z13	X14	Y14	Z14	X15	Y15	Z15	X16	Y16	Z16	X17	Y17	Z17	X18	Y18	Z18	X19	Y19	Z19	X20	Y20	Z20	X21	Y21	Z21	
24	0.8	-0.21258501948025366	1.8322334154636355	-0.5401540145245256	-0.22536068550839702	1.829380403963864	-0.48192370700468934	-0.22705558911640988	1.7056891160268448	-0.48415643232460603				-0.20782546371075883	1.5642272232312384	-0.5531724666003545							-0.19640318169165408	1.8339907113482412	-0.6092290514743013	-0.19497459703101405	1.7119911980790152	-0.5899899762353197	-0.18355095021157342	1.5918735544102514	-0.5771740888739033	-0.19791272358358022	1.5644221452549891	-0.6370359909759358	-0.18630325899046413	1.5712936609516617	-0.6495356171471388	-0.18952525790412728	1.5814643312949563	-0.5613155056038864	-0.20555535047142914	1.981549898922748	-0.5569785710608604	-0.22852342377334614	2.0414245136746385	-0.5556959473359288	-0.2264212733481174	1.9817435165936625	-0.46548865434606135	-0.24059575347110887	1.908830013157447	-0.42598672862110215	-0.23400477779986417	1.8705559378117316	-0.5168129738165723	-0.17974061026966967	1.9835809089856384	-0.6506169921615567	-0.16498529886762556	1.917117444521145	-0.6845421026253605	-0.1941110295339846	1.8688840220056566	-0.6864851028243716
25	0.8333333333333334	-0.2085326708484467	1.8356293782361561	-0.5449991492727017	-0.22517353437433518	1.831999845666158	-0.4823946444113651	-0.2241881377404642	1.7068753886487287	-0.4741657351474816				-0.20782546371075883	1.5642272232312384	-0.5531724666003545							-0.1943384945851917	1.8382554651901557	-0.6117743504315205	-0.1931911968442548	1.7173788953364069	-0.5924497040318603	-0.18566267981054596	1.594592184578782	-0.5752668611603173	-0.193814620210068	1.5644393429060726	-0.6324040533467414	-0.18297375258529752	1.5702426888137204	-0.6484200115567255	-0.18961010036979178	1.5830105080200005	-0.5614593385706887	-1.6465872916499686	1.8911713378875226	1.0156671202161776	-0.22744443797877356	2.0423411229240496	-0.5525716851607074	-0.226385234879291	1.9804773761608845	-0.46506693459905446	-0.23654273847712756	1.908489684532041	-0.4131023412087138	-0.2205225034783067	1.8786682705907816	-0.49036341175351544	-0.17966631997702423	1.9861873874337947	-0.650912458085326	-0.16534499785320989	1.920091818098431	-0.676283706322451	-0.1918044658224419	1.8763830807667585	-0.6691554994024334
26	0.8666666666666667	-0.20519762041397707	1.8387245128013543	-0.5445208339117954	-0.22315077745299633	1.8347359026833514	-0.484921530918423	-0.22212320600773783	1.707672792353201	-0.47647145361326404				-0.20782546371075883	1.5642272232312384	-0.5531724666003545							-0.1931315320894437	1.8428552240480554	-0.6091910413850088	-0.19587896971527993	1.7176204458482927	-0.6021733803494622	-0.18319687642561805	1.5961545244354618	-0.5781064626468154	-0.19337054245071872	1.5654078074044009	-0.6329420080514694	-0.18211989026554823	1.5735897295701946	-0.6456102605568328	-0.18521822632182863	1.5855359236136881	-0.5662157261180787	-1.6428732893786129	1.8914023377413327	1.0117070046013013	-0.22449556431810871	2.0420320556252207	-0.5516384400218338	-0.22447891876874265	1.9816629281469686	-0.467679291968756	-0.23540159709651962	1.9096992090444713	-0.41008873000110474	-0.222360837709093	1.8782998157006563	-0.48797107606230167	-0.17677082465365557	1.986114875850695	-0.6501675866802805	-0.16169420722123565	1.9208826719252838	-0.6724188902936027	-0.19151259758867234	1.879353615353139	-0.6695823220076768
27	0.9	-0.20320260581567248	1.836263891957573	-0.5465677509363318	-0.22016432151474155	1.8336260070848112	-0.48399527665980857	-0.22005827427501146	1.7084701960576734	-0.47877717207904646				-0.20782546371075883	1.5642272232312384	-0.5531724666003545							-0.19098965997313253	1.8392072093428649	-0.6112437524308679	-0.18515972203707856	1.7171774636684523	-0.6137583511904754	-0.17625621922863668	1.604416892953311	-0.582010688651911	-0.18548576614758794	1.570213596918883	-0.637088916273832	-0.17494379025000759	1.582769585561729	-0.6489334969162387	-0.1793149952776587	1.594278961607374	-0.5731412478814769	-1.6403971867496234	1.8914880740129503	1.0091839206284203	-0.21959961316134	2.040657676934596	-0.55316218553896	-0.2205112285300777	1.9816718360998695	-0.4720404304648468	-0.23428636147461832	1.909097161207658	-0.41522901327942713	-0.22830226149150876	1.8689322745409787	-0.5149559696832898	-0.17459377710864912	1.9861996228328418	-0.652393943938243	-0.15864211913130338	1.9203320851236105	-0.6715688403448192	-0.19237467200577102	1.8736974968948097	-0.6604779845283447
28	0.9333333333333333	-0.20071881061495353	1.83613663481615	-0.549125124544021	-0.21659110665312548	1.8320481635815689	-0.491782587081842	-0.21799334254228508	1.7092675997621456	-0.48108289054482883				-0.20782546371075883	1.5642272232312384	-0.5531724666003545							-0.18733433089534685	1.8393350112976123	-0.6192595538017179	-0.1817662581307599	1.7208848492277713	-0.6218920895175506	-0.1684946200800276	1.6106351403348316	-0.5946375343760143	-0.17689781308738226	1.577866812010138	-0.6467749992903996	-0.16567955934400336	1.5869710199144826	-0.659047739204224	-0.1724811680215828	1.5989793074051808	-0.5807118817929156	-0.1972124917324195	1.9824415346171333	-0.5659104664375713	-0.21435185760018186	2.041421993526453	-0.562855053525533	-0.21665962174769468	1.9796015198411931	-0.47609414690083385	-0.2299048208506229	1.908028726357829	-0.43377489012109444	-0.22300142420495175	1.8703715126824492	-0.4867526180760423	-0.17030535053456555	1.9838166498074317	-0.656804222272049	-0.1549888446557193	1.9192972914725968	-0.6792082271796114	-0.1859277662558014	1.8696954758982647	-0.6666955757839604
29	0.9666666666666667	-0.19698528221438721	1.8346920379067735	-0.562048698871665	-0.2093249025685668	1.8319830880683134	-0.5003374538963378	-0.2159284108095587	1.7100650034666178	-0.48338860901061126				-0.20782546371075883	1.5642272232312384	-0.5531724666003545							-0.18020679793981415	1.8365275393179783	-0.6312179544959523	-0.17971533620933625	1.7200232341207984	-0.6238666313512803	-0.1637352214881153	1.6103300216620349	-0.6037578337740322	-0.17195571051666278	1.5797316871481635	-0.655971942970531	-0.16144880668440198	1.5884594178481226	-0.6717569674791174	-0.16289563603594895	1.5965881954497287	-0.590288496987375	-0.191050317459512	1.982354803506721	-0.5727758366031604	-0.2098348588572452	2.0411998416311494	-0.584389502809412	-0.21275603364015946	1.9786076963074786	-0.4806269787088535	-0.22892792932707878	1.8987815246337052	-0.4467786256683058	-0.22488782196537452	1.8478820120136215	-0.5076947098639839	-0.1637747062606232	1.9856332872586435	-0.6642115011539467	-0.15360876379606922	1.9174904957097003	-0.6957686225279073	-0.17713897097406112	1.8529355875838118	-0.6821768622877961
30	1.0	-0.18819682150675823	1.8365705303057793	-0.5800180409167438	-0.2019848408645048	1.8325913081886478	-0.5127317100946224	-0.21535608454856253	1.7107102537949221	-0.5106168551296921				-0.20782546371075883	1.5642272232312384	-0.5531724666003545							-0.17568653192280084	1.8380848604423605	-0.636162017177151	-0.1695710473313391	1.718864570789305	-0.6303784486176378	-0.1640578726512703	1.6083394904477846	-0.6163245623395125	-0.17372924637115225	1.5792624738846084	-0.6626752596736695	-0.16003951098366828	1.5874413222139796	-0.6774413059864095	-0.16308493922400874	1.5928368988615411	-0.5942171437097908	-1.6152392732108547	1.889587089757088	0.9748974834711939	-0.19924519912017008	2.041010048218698	-0.6043153759934135	-0.2116256696450441	1.976789560974081	-0.4942544558174453	-0.22199930919220223	1.8956942326524395	-0.45870341082817867	-0.22702075215938436	1.8385895949054996	-0.5165425537578816	-0.1602334512286883	1.9851892542823568	-0.6714454188283969	-0.15204321498658577	1.9159216286881309	-0.7012769360702112	-0.16373374573569552	1.8516063406786498	-0.6960400465838136
31	1.0333333333333334	-0.18594888336512871	1.8358366389087577	-0.5910476300323735	-0.2006276102795607	1.8339776580978324	-0.5359381605726808	-0.20639727423180038	1.7101459486021704	-0.5251810149687475				-0.20782546371075883	1.5642272232312384	-0.5531724666003545							-0.16586697909822215	1.8368410038410194	-0.6506079112185278	-0.16566752363540113	1.7225889230040377	-0.6348273767092372	-0.1616981814577562	1.607128432484833	-0.6189196778060448	-0.17250345720098192	1.5798259032038269	-0.6682564585657318	-0.1600515359175883	1.5877500661662243	-0.6775170370285666	-0.1617993952143449	1.59279721886271	-0.5996537849704985	-1.6009949328432822	1.8897227665894634	0.953029428743674	-0.19055102140483826	2.042783442084017	-0.6416486774908781	-0.20947068683002767	1.9771029748834013	-0.5052566218524837	-0.2177212926814482	1.897776126363354	-0.4718588525607532	-0.22062176502018366	1.832823163268482	-0.5225862222880924	-0.15802475348206801	1.9866709844849038	-0.6742942858737385	-0.1478309340471941	1.914826260802081	-0.7058222746059476	-0.1523116618755659	1.8468035429263003	-0.7072481388264004
